<?xml version="1.0" encoding="UTF-8"?> <!-- Generator: Adobe Illustrator 25.0.0, SVG Export Plug-In . SVG Version: 6.00 Build 0) --> <svg xmlns="http://www.w3.org/2000/svg" xmlns:xlink="http://www.w3.org/1999/xlink" version="1.1" id="Capa_1" x="0px" y="0px" viewBox="0 0 39.8 20" style="enable-background:new 0 0 39.8 20;" xml:space="preserve"> <style type="text/css"> .st0{fill-rule:evenodd;clip-rule:evenodd;fill:#FFFFFF;} </style> <path class="st0" d="M12.9,9v1h8V3h-10V2c0-0.6,0.4-1,1-1h10c0.6,0,1,0.4,1,1v2h4.7c1.1,0,1.6,0.6,1.9,1.1C30.1,6,31,7.5,31.6,8.5 c0.2,0.3,0.3,0.7,0.3,1V14c0,1.1-0.7,2-2,2h-1c0,1.7-1.3,3-3,3s-3-1.3-3-3h-4c0,1.7-1.3,3-3,3s-3-1.3-3-3h-1c-0.6,0-1-0.4-1-1V9h-2 V7h7v2H12.9z M15.9,14.8c0.7,0,1.2,0.5,1.2,1.2c0,0.7-0.5,1.2-1.2,1.2c-0.7,0-1.2-0.5-1.2-1.2C14.7,15.3,15.2,14.8,15.9,14.8z M25.9,14.8c0.7,0,1.2,0.5,1.2,1.2c0,0.7-0.5,1.2-1.2,1.2s-1.2-0.5-1.2-1.2C24.7,15.3,25.2,14.8,25.9,14.8z M22.9,12h-10v2h0.8 c0.5-0.6,1.3-1,2.2-1c0.9,0,1.7,0.4,2.2,1h5.5c0.5-0.6,1.3-1,2.2-1s1.7,0.4,2.2,1h1.8V9.4l-1.7-2.9C28,6.2,27.7,6,27.3,6h-4.4 C22.9,6,22.9,12,22.9,12z M23.9,7v3h5l-1.4-2.5C27.3,7.2,26.9,7,26.6,7H23.9z M7.9,4h8v2h-8V4z"></path> </svg> 